<?xml version="1.0" standalone="no"?>
<!DOCTYPE svg PUBLIC "-//W3C//DTD SVG 20010904//EN"
 "http://www.w3.org/TR/2001/REC-SVG-20010904/DTD/svg10.dtd">
<svg version="1.0" xmlns="http://www.w3.org/2000/svg"
 width="512.000000pt" height="455.000000pt" viewBox="0 0 512.000000 455.000000"
 preserveAspectRatio="xMidYMid meet">

<g transform="translate(0.000000,455.000000) scale(0.100000,-0.100000)"
fill="#000000" stroke="none">
<path d="M2425 3969 c-470 -64 -860 -403 -980 -850 -53 -201 -55 -396 -6 -594
168 -667 877 -1043 1531 -810 192 69 396 218 525 385 239 311 304 734 170
1110 -135 376 -469 662 -869 745 -99 20 -278 27 -371 14z m942 -514 c13 -9 28
-27 33 -41 6 -15 10 -230 10 -521 0 -540 0 -536 -57 -562 -15 -7 -116 -11
-274 -11 l-251 0 -34 34 c-19 19 -34 43 -34 55 0 20 5 21 134 21 131 0 134 0
160 27 l27 26 -3 423 c-3 390 -4 425 -21 441 -15 15 -41 19 -155 23 l-137 5 3
25 c1 14 12 34 23 45 18 18 37 20 232 25 269 6 314 4 344 -15z m-369 -135 c50
-33 52 -52 52 -427 0 -330 -1 -350 -20 -381 -11 -18 -32 -37 -46 -42 -15 -6
-252 -10 -604 -10 l-580 0 -32 29 -33 29 -3 363 c-2 255 1 371 9 391 11 28 41
52 74 61 11 3 277 4 590 3 487 -1 573 -3 593 -16z m-482 -903 c26 -30 31 -66
14 -98 -10 -17 -22 -19 -138 -19 -86 0 -132 4 -140 12 -17 17 -15 69 4 96 24
35 50 42 147 39 83 -2 90 -4 113 -30z m112 -175 c14 -27 22 -81 13 -86 -7 -5
-578 -9 -859 -6 l-54 0 7 43 c4 23 12 48 17 54 8 10 112 13 439 12 394 0 429
-1 437 -17z m197 -18 c32 -32 15 -49 -50 -49 -47 0 -60 3 -63 16 -5 25 26 49
63 49 18 0 41 -7 50 -16z"/>
<path d="M3240 3285 c0 -25 5 -45 10 -45 6 0 10 20 10 45 0 25 -4 45 -10 45
-5 0 -10 -20 -10 -45z"/>
<path d="M3202 3278 c-33 -33 -2 -91 48 -91 52 0 82 62 45 93 -13 11 -15 8
-13 -20 2 -23 -3 -36 -18 -46 -19 -13 -24 -13 -38 2 -12 11 -15 25 -11 45 7
32 5 35 -13 17z"/>
<path d="M3177 3074 c-4 -4 -7 -119 -7 -256 l0 -249 23 3 22 3 0 250 c0 218
-2 250 -15 253 -9 1 -19 0 -23 -4z"/>
<path d="M3276 3072 c-3 -5 -4 -118 -3 -253 l2 -244 23 -3 22 -3 -2 253 c-3
226 -5 253 -20 256 -9 2 -19 -1 -22 -6z"/>
<path d="M1560 970 l0 -282 123 4 c137 5 180 20 234 81 50 57 66 113 61 214
-5 97 -25 148 -75 194 -55 52 -89 62 -220 67 l-123 4 0 -282z m229 172 c63
-32 76 -61 76 -172 0 -84 -3 -103 -21 -127 -28 -38 -80 -63 -131 -63 l-43 0 0
190 0 190 43 0 c23 0 57 -8 76 -18z"/>
<path d="M2140 970 l0 -280 185 0 185 0 0 45 0 44 -127 3 -128 3 -3 73 -3 72
116 0 115 0 0 45 0 45 -115 0 -116 0 3 68 3 67 128 3 127 3 0 44 0 45 -185 0
-185 0 0 -280z"/>
<path d="M2660 970 l0 -282 123 4 c137 5 180 20 234 81 50 57 66 113 61 214
-5 97 -25 148 -75 194 -55 52 -89 62 -220 67 l-123 4 0 -282z m229 172 c63
-32 76 -61 76 -172 0 -84 -3 -103 -21 -127 -28 -38 -80 -63 -131 -63 l-43 0 0
190 0 190 43 0 c23 0 57 -8 76 -18z"/>
<path d="M3240 970 l0 -280 185 0 185 0 0 45 0 44 -127 3 -128 3 -3 73 -3 72
116 0 115 0 0 45 0 45 -115 0 -116 0 3 68 3 67 128 3 127 3 0 44 0 45 -185 0
-185 0 0 -280z"/>
</g>
</svg>
